<svg id="Capa_1" enable-background="new 0 0 512 512" height="512" viewBox="0 0 512 512" width="512" xmlns="http://www.w3.org/2000/svg"><g><g fill="#c3ddff"><path d="m174.249 174.249c-3.225 3.225-3.225 8.454 0 11.679l17.518 17.518 11.679-11.679-17.518-17.518c-3.225-3.225-8.454-3.225-11.679 0z"/><path d="m337.751 337.751c3.225-3.225 3.225-8.454 0-11.679l-17.518-17.518-11.679 11.679 17.518 17.518c3.225 3.225 8.454 3.225 11.679 0z"/><g><path d="m144.327 285.923c1.18 4.405 5.709 7.02 10.114 5.839l23.93-6.412-4.275-15.953-23.93 6.412c-4.406 1.18-7.02 5.708-5.839 10.114z"/><path d="m367.673 226.077c-1.18-4.405-5.709-7.02-10.114-5.839l-23.93 6.412 4.275 15.953 23.93-6.412c4.406-1.18 7.02-5.708 5.839-10.114z"/><path d="m226.077 144.327c-4.405 1.18-7.02 5.709-5.839 10.114l6.412 23.93 15.953-4.275-6.412-23.93c-1.18-4.406-5.708-7.02-10.114-5.839z"/><path d="m285.923 367.673c4.405-1.18 7.02-5.709 5.839-10.114l-6.412-23.93-15.953 4.275 6.412 23.93c1.18 4.406 5.708 7.02 10.114 5.839z"/></g><g><path d="m285.923 144.327c4.405 1.18 7.02 5.709 5.839 10.114l-6.412 23.93-15.953-4.275 6.412-23.93c1.18-4.406 5.708-7.02 10.114-5.839z"/><path d="m226.077 367.673c-4.405-1.18-7.02-5.709-5.839-10.114l6.412-23.93 15.953 4.275-6.412 23.93c-1.18 4.406-5.708 7.02-10.114 5.839z"/><path d="m144.327 226.077c1.18-4.405 5.709-7.02 10.114-5.839l23.93 6.412-4.275 15.953-23.93-6.412c-4.406-1.18-7.02-5.708-5.839-10.114z"/><path d="m367.673 285.923c-1.18 4.405-5.709 7.02-10.114 5.839l-23.93-6.412 4.275-15.953 23.93 6.412c4.406 1.18 7.02 5.708 5.839 10.114z"/></g></g><path d="m340.714 284.903h16.516v49.548h-16.516z" fill="#ffd064" transform="matrix(.5 -.866 .866 .5 -93.703 457.057)"/><circle cx="377.579" cy="326.194" fill="#ffe07d" r="16.516"/><path d="m154.77 177.548h16.516v49.548h-16.516z" fill="#ffd064" transform="matrix(-.5 .866 -.866 -.5 419.759 162.298)"/><circle cx="134.421" cy="185.806" fill="#ffe07d" r="16.516"/><path d="m194.065 324.198h16.516v49.548h-16.516z" fill="#ffd064" transform="matrix(.866 .5 -.5 .866 201.592 -54.408)"/><circle cx="185.806" cy="377.579" fill="#ffe07d" r="16.516"/><path d="m301.419 138.254h16.516v49.548h-16.516z" fill="#ffd064" transform="matrix(-.866 -.5 .5 -.866 496.352 459.053)"/><circle cx="326.194" cy="134.421" fill="#ffe07d" r="16.516"/><path d="m154.77 284.903h16.516v49.548h-16.516z" fill="#ffd064" transform="matrix(-.5 -.866 .866 -.5 -23.647 605.703)"/><circle cx="134.421" cy="326.194" fill="#ffe07d" r="16.516"/><path d="m340.714 177.548h16.516v49.548h-16.516z" fill="#ffd064" transform="matrix(.5 .866 -.866 .5 349.703 -201.057)"/><circle cx="377.579" cy="185.806" fill="#ffe07d" r="16.516"/><path d="m301.419 324.198h16.516v49.548h-16.516z" fill="#ffd064" transform="matrix(-.866 .5 -.5 -.866 752.352 496.352)"/><circle cx="326.194" cy="377.579" fill="#ffe07d" r="16.516"/><path d="m194.065 138.254h16.516v49.548h-16.516z" fill="#ffd064" transform="matrix(.866 -.5 .5 .866 -54.408 123.003)"/><circle cx="185.806" cy="134.421" fill="#ffe07d" r="16.516"/><path d="m140.387 231.226h16.516v49.548h-16.516z" fill="#ffd064" transform="matrix(0 -1 1 0 -107.355 404.645)"/><circle cx="115.613" cy="256" fill="#ffe07d" r="16.516"/><path d="m355.097 231.226h16.516v49.548h-16.516z" fill="#ffd064" transform="matrix(0 1 -1 0 619.355 -107.355)"/><circle cx="396.387" cy="256" fill="#ffe07d" r="16.516"/><path d="m247.742 338.581h16.516v49.548h-16.516z" fill="#ffd064" transform="matrix(-1 0 0 -1 512 726.71)"/><circle cx="256" cy="396.387" fill="#ffe07d" r="16.516"/><path d="m247.742 123.871h16.516v49.548h-16.516z" fill="#ffd064"/><path d="m256 0c-141.385 0-256 114.615-256 256s114.615 256 256 256 256-114.615 256-256-114.615-256-256-256zm0 487.226c-127.703 0-231.226-103.524-231.226-231.226 0-127.703 103.523-231.226 231.226-231.226s231.226 103.523 231.226 231.226c0 127.702-103.523 231.226-231.226 231.226z" fill="#ff8086"/><path d="m346.839 256c0 18.754-5.683 36.18-15.421 50.651-16.313 24.241-44.003 34.849-75.418 34.849-50.169 0-80.333-35.331-80.333-85.5 0-31.422 5.449-59.118 29.699-75.429 14.468-9.731 31.888-15.41 50.635-15.41 50.168 0 90.838 40.67 90.838 90.839z" fill="#ff8086"/><path d="m280.78 322.076c-50.169 0-90.839-40.67-90.839-90.839 0-18.752 5.689-36.197 15.424-50.666-24.243 16.312-40.199 44.023-40.199 75.441 0 50.169 40.67 90.839 90.839 90.839 31.417 0 59.103-15.955 75.415-40.198-14.47 9.735-31.889 15.423-50.64 15.423z" fill="#e5646e"/><circle cx="256" cy="115.613" fill="#ffe07d" r="16.516"/><circle cx="222.968" cy="222.968" fill="#ffe07d" r="16.516"/><circle cx="289.032" cy="289.032" fill="#ffe07d" r="16.516"/><path d="m264.339 206.452h-.081c-4.565 0-8.258-3.694-8.258-8.258 0-4.565 3.694-8.258 8.258-8.258s8.298 3.694 8.298 8.258-3.653 8.258-8.217 8.258z" fill="#c3ddff"/><path d="m198.274 272.516h-.081c-4.565 0-8.258-3.694-8.258-8.258s3.694-8.258 8.258-8.258c4.565 0 8.298 3.694 8.298 8.258s-3.652 8.258-8.217 8.258z" fill="#c3ddff"/><path d="m313.806 256h-.081c-4.565 0-8.258-3.694-8.258-8.258 0-4.565 3.694-8.258 8.258-8.258s8.298 3.694 8.298 8.258c.001 4.564-3.652 8.258-8.217 8.258z" fill="#c3ddff"/><path d="m247.742 322.065h-.081c-4.565 0-8.258-3.694-8.258-8.258s3.694-8.258 8.258-8.258 8.298 3.694 8.298 8.258-3.653 8.258-8.217 8.258z" fill="#c3ddff"/><path d="m256 16.516c-132.263 0-239.484 107.22-239.484 239.484 0 132.263 107.221 239.484 239.484 239.484s239.484-107.221 239.484-239.484c0-132.264-107.221-239.484-239.484-239.484zm-222.968 239.484c0-123.142 99.826-222.968 222.968-222.968 58.6 0 111.889 22.639 151.684 59.606l-315.045 315.046c-36.968-39.795-59.607-93.084-59.607-151.684zm222.968 222.968c-58.6 0-111.889-22.639-151.684-59.606l315.045-315.045c36.968 39.794 59.607 93.083 59.607 151.683 0 123.142-99.826 222.968-222.968 222.968z" fill="#e5646e"/></g></svg>