<?xml version="1.0"?>
<svg xmlns="http://www.w3.org/2000/svg" viewBox="0 0 512 512" width="512" height="512"><g id="filled_outline" data-name="filled outline"><circle cx="104" cy="120" r="32" style="fill:#69b9e7"/><path d="M184,240V200l-48-48H72L27.162,211.785A15.8,15.8,0,0,0,24,221.269c0,14.675,18.258,21.43,27.809,10.287L72,208v40L57.936,390.578A15.689,15.689,0,0,0,73.529,408h.429a15.689,15.689,0,0,0,15.593-13.957L104,272l14.449,122.043A15.689,15.689,0,0,0,134.042,408h.429a15.689,15.689,0,0,0,15.593-17.422L136,248V192Z" style="fill:#69b9e7"/><circle cx="256" cy="208" r="32" style="fill:#97d9a9"/><path d="M328,240V200l-40,40H224l-40-40v40l40,40v48l-12.247,61.234a15.689,15.689,0,0,0,30.769,6.154L256,328l13.478,67.388a15.689,15.689,0,0,0,30.769-6.154L288,328V280Z" style="fill:#97d9a9"/><path d="M484.838,211.785,440,152H376l-48,48v40l48-48v56l-24,72h16.9l-6.961,70.578A15.689,15.689,0,0,0,377.529,408h.429a15.689,15.689,0,0,0,15.593-13.957L400.876,320h14.248l7.325,74.043A15.689,15.689,0,0,0,438.042,408h.429a15.689,15.689,0,0,0,15.593-17.422L447.1,320H464l-24-72V208l20.191,23.556C469.742,242.7,488,235.944,488,221.269A15.8,15.8,0,0,0,484.838,211.785Z" style="fill:#ffb1b4"/><circle cx="408" cy="120" r="32" style="fill:#ffb1b4"/><path d="M491.2,206.965l-44.8-59.76A8,8,0,0,0,440,144h-.022a40,40,0,1,0-63.956,0H376a8,8,0,0,0-5.657,2.343l-48,48L292.62,224.07a40,40,0,1,0-73.24,0l-29.723-29.723-48-48A8,8,0,0,0,136,144h-.022a40,40,0,1,0-63.956,0H72a8,8,0,0,0-6.4,3.2L20.762,206.989A23.953,23.953,0,0,0,16,221.273a23.808,23.808,0,0,0,41.883,15.494L64,229.63v17.98L49.984,389.7A23.69,23.69,0,0,0,73.529,416h.429A23.65,23.65,0,0,0,97.5,394.987l6.5-54.941,6.5,54.884A23.665,23.665,0,0,0,134.042,416h.429A23.689,23.689,0,0,0,158.026,389.8L144,247.61V211.317l34.343,34.344L216,283.318v43.894L203.91,387.66a23.7,23.7,0,1,0,46.5,9.269L256,368.889l5.605,28.093a23.712,23.712,0,0,0,46.955-4.658,21.773,21.773,0,0,0-.5-4.789L296,327.212V283.318l37.657-37.657L368,211.317v35.389l-23.589,70.768A8,8,0,0,0,352,328h8.052l-6.089,61.725A23.709,23.709,0,0,0,377.52,416h.4a23.672,23.672,0,0,0,23.561-21.129L408,329.256l6.529,65.711A23.65,23.65,0,0,0,438.08,416h.4a23.709,23.709,0,0,0,23.557-26.275L455.948,328H464a8,8,0,0,0,7.589-10.53L448,246.706V229.63l6.077,7.09A23.8,23.8,0,0,0,491.2,206.965ZM384,120a24,24,0,1,1,24,24A24.028,24.028,0,0,1,384,120ZM256,184a24,24,0,1,1-24,24A24.028,24.028,0,0,1,256,184ZM80,120a24,24,0,1,1,24,24A24.028,24.028,0,0,1,80,120Zm61.657,66.343A8,8,0,0,0,128,192v56q0,.393.039.785l14.074,142.676A7.69,7.69,0,0,1,134.471,400h-.429a7.7,7.7,0,0,1-7.648-6.9l-14.45-122.043a8,8,0,0,0-15.888,0L81.6,393.164A7.682,7.682,0,0,1,73.958,400h-.429a7.692,7.692,0,0,1-7.632-8.637L79.961,248.789Q80,248.4,80,248V208A8,8,0,0,0,65.926,202.8L45.735,226.354A7.808,7.808,0,0,1,32,221.273a7.859,7.859,0,0,1,1.562-4.685L76,160h56.687L176,203.317V220.69Zm140.686,88A8,8,0,0,0,280,280v48a8.026,8.026,0,0,0,.155,1.569l12.241,61.2c.015.076.031.152.049.228a6.094,6.094,0,0,1,.115,1.323,7.712,7.712,0,0,1-15.275,1.474l-13.44-67.36a8,8,0,0,0-15.69,0l-13.429,67.308A7.732,7.732,0,0,1,227.12,400a7.526,7.526,0,0,1-5.9-2.775,7.783,7.783,0,0,1-1.613-6.456l12.241-61.2A8.026,8.026,0,0,0,232,328V280a8,8,0,0,0-2.343-5.657L192,236.69V219.318l26.343,26.343A8,8,0,0,0,224,248h64a8,8,0,0,0,5.657-2.343L320,219.318V236.69ZM472.08,229.124a7.606,7.606,0,0,1-5.846-2.807l-20.16-23.52A8,8,0,0,0,432,208v40a8,8,0,0,0,.411,2.53L452.9,312h-5.78a8,8,0,0,0-7.961,8.785l6.96,70.56c0,.036.007.071.011.106A7.708,7.708,0,0,1,438.48,400h-.4a7.646,7.646,0,0,1-7.639-6.711l-7.36-74.08A8,8,0,0,0,415.12,312H400.88a8,8,0,0,0-7.961,7.209l-7.35,73.988a7.667,7.667,0,0,1-7.649,6.8h-.4a7.708,7.708,0,0,1-7.65-8.549c0-.035.008-.07.011-.106l6.96-70.56A8,8,0,0,0,368.88,312H363.1l20.489-61.47A8,8,0,0,0,384,248V192a8,8,0,0,0-13.657-5.657L336,220.69V203.317L379.313,160H436l42.378,56.53a7.821,7.821,0,0,1-6.3,12.59Z"/></g></svg>
