<svg id="Capa_1" enable-background="new 0 0 512 512" height="512" viewBox="0 0 512 512" width="512" xmlns="http://www.w3.org/2000/svg"><g><g><g><path d="m381.836 0c-103.823 0-129.688 94.309-128.552 246.893h.004s-.762 26.447 30.408 46.326h196.274c31.17-19.879 30.408-46.326 30.408-46.326h.009c1.136-152.584-24.729-246.893-128.551-246.893z" fill="#cf8151"/><path d="m381.833 254.009c-34.832 0-73.16 10.311-98.135 39.207 5.001 3.19 10.821 6.211 17.601 8.927h161.068c6.781-2.715 12.6-5.737 17.601-8.927-24.975-28.896-63.303-39.207-98.135-39.207z" fill="#bd6e45"/><path d="m337.386 98.881c-5.113 10.947-16.839 30.821-37.774 40.347-1.844.839-3.038 2.668-3.038 4.694v22.054 7.448c0 47.089 38.173 87.394 85.261 87.394 47.089 0 85.262-40.305 85.262-87.394v-7.448-28.219c0-2.924-2.42-5.262-5.343-5.158-18.832.669-82.773.152-115.926-35.058-2.509-2.666-6.893-1.977-8.442 1.34z" fill="#f0c69e"/><path d="m381.835 251.237c-47.089 0-85.261-38.173-85.261-85.261v18.581c0 47.089 38.173 85.261 85.261 85.261 47.089 0 85.262-38.173 85.262-85.261v-18.581c0 47.088-38.173 85.261-85.262 85.261z" fill="#e6ba94"/></g><g><path d="m239.408 417.109c.844-14.517.751-27.718-.163-39.714h-201.834c-.914 11.996-1.007 25.197-.163 39.714z" fill="#26457d"/><path d="m35.398 420.892c0 16.299 8.244 25.485 19.058 25.485l7.371-9.396 8.975-16.089-9-16.092c-.867-.089-1.748-.135-2.639-.135-10.814 0-20.05 6.73-23.765 16.227z" fill="#e2ae84"/><path d="m59.163 437.12c-10.814 0-20.05-6.73-23.766-16.228-1.127 2.88-1.752 6.011-1.752 9.29 0 14.093 11.424 25.518 25.518 25.518 1.783 0 3.523-.184 5.202-.532l6.436-8.792-8.975-9.395c-.875.091-1.763.139-2.663.139z" fill="#d7a379"/><path d="m241.264 420.892c0 16.299-8.244 25.485-19.058 25.485l-7.371-9.396-8.975-16.089 9-16.092c.868-.089 1.748-.135 2.639-.135 10.814 0 20.05 6.73 23.765 16.227z" fill="#e2ae84"/><path d="m217.499 437.12c10.814 0 20.05-6.73 23.766-16.228 1.127 2.88 1.752 6.011 1.752 9.29 0 14.093-11.425 25.518-25.518 25.518-1.783 0-3.523-.184-5.202-.532l-6.436-8.792 8.975-9.395c.875.091 1.763.139 2.663.139z" fill="#d7a379"/><path d="m189.691 377.395-52.235-9-50.485 9c-14.576 24-25.165 27.404-25.169 27.405v16.092 4.364c0 42.266 34.263 77.744 76.529 77.744 42.266 0 76.529-35.478 76.529-77.744v-4.417-16.039s-10.591-3.403-25.169-27.405z" fill="#f0c69e"/><path d="m138.331 493.419c-42.266 0-76.529-34.263-76.529-76.529v18.581c0 42.266 34.263 76.529 76.529 76.529 42.266 0 76.529-34.263 76.529-76.529v-18.581c0 42.266-34.264 76.529-76.529 76.529z" fill="#e6ba94"/><path d="m242.264 358.814c-10.464-68.409-58.271-88.996-103.936-88.996s-93.472 20.587-103.936 88.996l103.939 9z" fill="#dc4955"/><path d="m34.386 358.814c-.637 4.165-1.136 8.507-1.487 13.033-.232 2.991 2.152 5.548 5.152 5.548h67.739l32.541-9 32.541 9h67.734c3.001 0 5.384-2.557 5.152-5.548-.351-4.526-.85-8.867-1.487-13.033z" fill="#d82f3c"/><path d="m170.823 351.201c-.916-17.152-15.112-30.778-32.492-30.778-17.38 0-31.576 13.626-32.492 30.778l32.489 9z" fill="#26457d"/><path d="m105.79 358.814v-7.613h65.082v7.613l-32.541 9z" fill="#f6e080"/><path d="m105.79 358.814h65.082v18.581h-65.082z" fill="#eccd61"/></g><g><path d="m300.898 445.778-16.138-6.453s-21.962 10.903-20.905 51.272c26.503 3.958 42.181-19.91 37.043-44.819z" fill="#cf8151"/><path d="m479.808 412.585c22.666-111.398-42.983-142.767-97.975-142.767s-120.641 31.369-97.975 142.767z" fill="#cf8151"/><path d="m310.142 449.474-9.244-3.696c-3.494 25.837-25.576 39.43-37.044 44.82.12 4.594.536 9.568 1.318 14.951.495 3.412 4.132 5.394 7.266 3.957 13.191-6.047 42.498-23.737 37.704-60.032z" fill="#bd6e45"/><path d="m282.177 415.966c0 10.316 7.159 24.577 17.533 24.577l7.963-9.266 8.675-7.57-8.69-23.053c-.841-.086-1.694-.131-2.558-.131-10.374-.001-19.25 6.388-22.923 15.443z" fill="#e2ae84"/><path d="m305.1 431.409c-10.373 0-19.25-6.389-22.923-15.444-1.164 2.869-1.811 6.003-1.811 9.29 0 13.66 11.074 24.734 24.734 24.734 1.728 0 3.415-.179 5.043-.516l8.58-10.149-11.05-8.049c-.846.089-1.704.134-2.573.134z" fill="#d7a379"/><path d="m462.772 445.778 16.138-6.453s21.962 10.903 20.905 51.272c-26.503 3.958-42.18-19.91-37.043-44.819z" fill="#cf8151"/><path d="m453.528 449.474 9.244-3.696c3.494 25.837 25.576 39.43 37.044 44.82-.12 4.594-.536 9.568-1.318 14.951-.495 3.412-4.132 5.394-7.266 3.957-13.191-6.047-42.497-23.737-37.704-60.032z" fill="#bd6e45"/><path d="m481.494 415.966c0 10.316-7.159 24.577-17.533 24.577l-7.963-9.266-8.675-7.57 8.69-23.053c.841-.086 1.694-.131 2.557-.131 10.374-.001 19.25 6.388 22.924 15.443z" fill="#e2ae84"/><path d="m458.571 431.409c10.373 0 19.25-6.389 22.923-15.444 1.164 2.869 1.811 6.003 1.811 9.29 0 13.66-11.074 24.734-24.734 24.734-1.728 0-3.414-.179-5.043-.516l-8.58-10.149 11.05-8.049c.846.089 1.704.134 2.573.134z" fill="#d7a379"/><path d="m386.169 340.245c26.536 40.967 69.844 60.427 69.844 60.427v11.13 9.581c0 40.967-33.211 74.178-74.178 74.178-40.967 0-74.178-33.211-74.178-74.178v-9.581-11.13s43.308-19.461 69.844-60.427c2.047-3.159 6.622-3.159 8.668 0z" fill="#f0c69e"/><path d="m381.835 485.98c-40.967 0-74.178-33.21-74.178-74.178v18.581c0 40.967 33.211 74.178 74.178 74.178 40.967 0 74.178-33.21 74.178-74.178v-18.581c0 40.967-33.21 74.178-74.178 74.178z" fill="#e6ba94"/></g><g><path d="m254.303 153.958c36.599-118.601-59.302-122.845-59.302-122.845s-11.404-31.113-62.724-31.113c-49.271 0-80.435 15.163-123.214 8.444-2.956-.464-5.706 1.624-5.983 4.604-1.921 20.732-6.446 94.436 21.272 135.035z" fill="#26457d"/><path d="m50.127 131.654c-11.411 0-21.246 6.726-25.772 16.427 2.207 3.232 4.615 6.257 7.249 9.026l33.891.684-12.428-25.987c-.967-.099-1.947-.15-2.94-.15z" fill="#21386b"/><path d="m250.945 164.099c1.227-3.477 2.327-6.847 3.344-10.145-2.804-12.754-14.164-22.301-27.76-22.301-.993 0-1.973.052-2.94.151l-9.91 31.423z" fill="#21386b"/><path d="m23.258 169.374c0 14.588 8.193 28.995 20.639 28.995l9.262-10.019 16.23-7.602-16.323-30.362c-.967-.099-1.947-.151-2.94-.151-12.446-.001-23.017 8.001-26.868 19.139z" fill="#e2ae84"/><path d="m50.127 188.513c-12.447 0-23.018-8.002-26.868-19.139-1.007 2.912-1.561 6.036-1.561 9.29 0 15.701 12.728 28.43 28.43 28.43 1.986 0 3.925-.205 5.796-.593l5.796-10.288-8.559-7.863c-.998.106-2.009.163-3.034.163z" fill="#d7a379"/><path d="m253.398 169.374c0 14.588-8.193 28.995-20.639 28.995l-9.262-10.019-16.229-7.602 16.323-30.362c.966-.099 1.947-.151 2.94-.151 12.446-.001 23.017 8.001 26.867 19.139z" fill="#e2ae84"/><path d="m226.53 188.513c12.447 0 23.018-8.002 26.868-19.139 1.007 2.912 1.561 6.036 1.561 9.29 0 15.701-12.728 28.43-28.43 28.43-1.986 0-3.925-.205-5.796-.593l-5.796-10.288 8.559-7.863c.997.106 2.009.163 3.034.163z" fill="#d7a379"/><path d="m223.59 130.944v35.032 7.606c0 47.089-38.173 87.236-85.261 87.236-47.089 0-85.261-40.147-85.261-87.236v-7.606-77.247c0-3.921 4.197-6.419 7.633-4.529 15.749 8.664 55.963 23.726 121.501 2.03 2.601-.861 5.415.457 6.426 3.004 3.344 8.422 12.435 26.337 32.268 37.183 1.655.907 2.694 2.638 2.694 4.527z" fill="#f0c69e"/><path d="m138.328 251.237c-47.089 0-85.262-38.173-85.262-85.261v18.581c0 47.089 38.173 85.261 85.261 85.261 47.089 0 85.261-38.173 85.261-85.261v-18.581c.002 47.088-38.171 85.261-85.26 85.261z" fill="#e6ba94"/></g></g><g><g fill="#5e6b75"><path d="m95.787 150.4c-4.309 0-7.803 3.473-7.803 7.757v19.151c0 4.284 3.494 7.757 7.803 7.757s7.803-3.473 7.803-7.757v-19.151c0-4.284-3.494-7.757-7.803-7.757z"/><path d="m179.067 150.4c-4.309 0-7.803 3.473-7.803 7.757v19.151c0 4.284 3.494 7.757 7.803 7.757s7.803-3.473 7.803-7.757v-19.151c0-4.284-3.494-7.757-7.803-7.757z"/><path d="m341.214 150.4c-4.309 0-7.803 3.473-7.803 7.757v19.151c0 4.284 3.494 7.757 7.803 7.757s7.803-3.473 7.803-7.757v-19.151c0-4.284-3.494-7.757-7.803-7.757z"/><path d="m424.494 185.064c4.309 0 7.803-3.473 7.803-7.757v-19.151c0-4.284-3.494-7.757-7.803-7.757s-7.803 3.473-7.803 7.757v19.151c0 4.285 3.493 7.757 7.803 7.757z"/><path d="m100.054 404.487c-4.309 0-7.803 3.473-7.803 7.757v17.189c0 4.284 3.494 7.757 7.803 7.757 4.31 0 7.803-3.473 7.803-7.757v-17.189c0-4.283-3.493-7.757-7.803-7.757z"/><path d="m174.805 404.487c-4.309 0-7.803 3.473-7.803 7.757v17.189c0 4.284 3.494 7.757 7.803 7.757s7.803-3.473 7.803-7.757v-17.189c0-4.283-3.494-7.757-7.803-7.757z"/><path d="m346.627 400.113c-4.309 0-7.803 3.473-7.803 7.757v16.662c0 4.284 3.494 7.757 7.803 7.757s7.803-3.473 7.803-7.757v-16.662c0-4.284-3.494-7.757-7.803-7.757z"/><path d="m419.081 400.113c-4.31 0-7.803 3.473-7.803 7.757v16.662c0 4.284 3.493 7.757 7.803 7.757 4.309 0 7.803-3.473 7.803-7.757v-16.662c0-4.284-3.494-7.757-7.803-7.757z"/></g><path d="m402.198 447.12c-3.989-1.632-8.55.258-10.191 4.221-.016.039-2.028 3.827-9.127 3.827s-9.111-3.789-9.127-3.827c-1.641-3.963-6.202-5.853-10.191-4.221-3.986 1.632-5.887 6.168-4.246 10.131 2.067 4.991 9.357 13.437 23.564 13.437s21.496-8.447 23.564-13.437c1.641-3.964-.26-8.5-4.246-10.131z" fill="#dc4955"/><path d="m408.851 214.229c.466-.997.733-2.103.733-3.274 0-4.301-3.507-7.788-7.834-7.788-3.276 0-6.085 1.995-7.255 4.834-.001-.001 0 .001 0 0-.268.548-2.879 5.35-11.722 5.35-8.844 0-11.454-4.802-11.722-5.35 0 .001.001 0 0 .001-1.17-2.838-3.979-4.835-7.255-4.835-4.327 0-7.834 3.486-7.834 7.788 0 1.175.269 2.285.738 3.284 2.332 5.506 10.386 14.687 26.073 14.687 15.697 0 23.752-9.193 26.078-14.697z" fill="#dc4955"/><path d="m154.477 452.044c-3.294 0-6.106 2.028-7.256 4.894-.001-.001-.007-.005-.007-.006-.223.444-2.395 4.336-9.759 4.336-7.363 0-9.535-3.892-9.758-4.336 0 .001.001-.001 0 .001-1.15-2.866-3.97-4.889-7.264-4.889-4.317 0-7.816 3.478-7.816 7.769 0 1.168.263 2.272.728 3.266 2.112 5.099 9.566 13.727 24.11 13.727s21.999-8.629 24.11-13.727c0 0-.003-.001-.003-.001.464-.993.731-2.097.731-3.264 0-4.291-3.499-7.77-7.816-7.77z" fill="#dc4955"/><path d="m156.481 203.255c-3.376 0-6.243 2.134-7.333 5.115-.005-.004-.017-.011-.016-.013-.267.545-2.863 5.32-11.661 5.32-8.797 0-11.393-4.776-11.66-5.32.001.002 0 0 0 0-1.09-2.982-3.973-5.102-7.349-5.102-4.313 0-7.808 3.475-7.808 7.762 0 1.24.286 2.413.805 3.453 2.266 5.472 10.295 14.732 26.013 14.732s23.747-9.26 26.013-14.732c.52-1.04.805-2.213.805-3.453 0-4.286-3.496-7.762-7.809-7.762z" fill="#dc4955"/></g></g></svg>