<svg height="512" viewBox="0 0 512 512" width="512" xmlns="http://www.w3.org/2000/svg"><g id="filled_outline" data-name="filled outline"><path d="m448 488h-384v-304l192-112 192 112z" fill="#0296e5"/><path d="m392 168h-96a8 8 0 0 1 0-16h96a8 8 0 0 1 0 16z" fill="#026ca2"/><circle cx="372" cy="92" fill="#fbb540" r="68"/><circle cx="372" cy="92" fill="#ea9d2d" r="36"/><path d="m416 328a24.006 24.006 0 0 0 -19.366-23.549 32 32 0 1 0 -40.406.7 29.983 29.983 0 0 0 -13.015 7.636l-31.213 31.213-8 8v24l16-8 32-24-16 96h16v48h64v-48h16z" fill="#ffb3b3"/><path d="m168.787 312.787a29.983 29.983 0 0 0 -13.015-7.636 32 32 0 1 0 -40.406-.7 24.006 24.006 0 0 0 -19.366 23.549v160h64v-144l32 24 8-16v-8z" fill="#0bafea"/><path d="m120 488v-80a8 8 0 0 1 16 0v80z" fill="#0296e5"/><path d="m376 440h16v48h-16z" fill="#0296e5"/><path d="m233.019 208a16.854 16.854 0 0 1 11.917 4.936l11.064 11.064 11.064-11.064a16.854 16.854 0 0 1 11.917-4.936 16.853 16.853 0 0 1 14.022 7.5 22.063 22.063 0 0 1 -4.233 29.187l-32.77 27.313-32.77-27.308a22.063 22.063 0 0 1 -4.23-29.187 16.853 16.853 0 0 1 14.019-7.505z" fill="#d32b39"/><circle cx="256" cy="336" fill="#fbb540" r="32"/><path d="m312 344-26.28 15.768a57.761 57.761 0 0 1 -29.72 8.232 57.761 57.761 0 0 1 -29.72-8.232l-26.28-15.768-8 24 32 32v88h64v-88l32-32z" fill="#fbb540"/><path d="m248 488v-48a8 8 0 0 1 16 0v48z" fill="#0296e5"/><path d="m448 92a75.988 75.988 0 0 0 -151.757-5.787l-36.212-21.123a8 8 0 0 0 -8.062 0l-192 112a8 8 0 0 0 -3.969 6.91v304a8 8 0 0 0 8 8h384a8 8 0 0 0 8-8v-304a8 8 0 0 0 -3.969-6.91l-37.709-22a75.984 75.984 0 0 0 33.678-63.09zm-312 388v-72a8 8 0 0 0 -16 0v72h-16v-152a16.025 16.025 0 0 1 9.8-14.746 39.9 39.9 0 0 0 43.1.833 21.919 21.919 0 0 1 6.227 4.356l27.717 27.718-2.927 8.779-23.117-17.34a8 8 0 0 0 -12.8 6.4v136zm0-176a24 24 0 1 1 24-24 24.028 24.028 0 0 1 -24 24zm80 176h-48v-120l18.745 14.059 29.255 29.254zm48 0v-40a8 8 0 0 0 -16 0v40h-16v-80a8 8 0 0 0 -2.343-5.657l-28.5-28.5 3.283-9.848 17.728 10.637a65.764 65.764 0 0 0 67.671 0l17.729-10.637 3.283 9.848-28.5 28.5a8 8 0 0 0 -2.351 5.657v80zm-32-144a24 24 0 1 1 24 24 24.028 24.028 0 0 1 -24-24zm144-32a24 24 0 1 1 24-24 24.028 24.028 0 0 1 -24 24zm-27.13 14.443a21.919 21.919 0 0 1 6.227-4.356 39.9 39.9 0 0 0 43.1-.833 16.025 16.025 0 0 1 9.803 14.746q0 .285.021.57l7.387 103.43h-62.714l7.278-87.335a8 8 0 0 0 -12.772-7.065l-23.12 17.34-2.927-8.779zm-4.87 161.557h-48v-76.687l29.255-29.254 17.293-12.97-6.52 78.246a8 8 0 0 0 7.972 8.665zm16-32h16v32h-16zm32 32v-32h16v32zm48-291.4v291.4h-16v-32a8 8 0 0 0 7.979-8.57l-7.979-111.736a32.067 32.067 0 0 0 -14.232-26.294 40 40 0 1 0 -66.745 1.2 37.909 37.909 0 0 0 -5.466 4.525l-30.517 30.522-12.04 7.226a40 40 0 1 0 -77.992 0l-12.044-7.226-30.521-30.517a37.909 37.909 0 0 0 -5.466-4.525 40 40 0 1 0 -66.745-1.205 32.062 32.062 0 0 0 -14.232 26.6v152h-16v-291.4l184-107.338 41.187 24.025a76.044 76.044 0 0 0 28.248 46.713h-29.435a8 8 0 0 0 0 16h72a8.091 8.091 0 0 0 1.039-.075c.984.038 1.968.075 2.961.075a75.65 75.65 0 0 0 25.264-4.334zm-68-36.6a60 60 0 1 1 60-60 60.068 60.068 0 0 1 -60 60z"/><path d="m372 48a44 44 0 1 0 44 44 44.049 44.049 0 0 0 -44-44zm0 72a28 28 0 1 1 28-28 28.032 28.032 0 0 1 -28 28z"/><path d="m278.98 200a24.689 24.689 0 0 0 -17.573 7.279l-5.407 5.408-5.407-5.408a24.853 24.853 0 0 0 -38.252 3.788 30.009 30.009 0 0 0 5.767 39.771l32.77 27.308a8 8 0 0 0 10.244 0l32.77-27.309a30.009 30.009 0 0 0 5.768-39.77 24.8 24.8 0 0 0 -20.68-11.067zm4.668 38.546-27.648 23.04-27.648-23.04a14.036 14.036 0 0 1 -2.7-18.6 8.852 8.852 0 0 1 13.625-1.349l11.064 11.064a8 8 0 0 0 11.314 0l11.064-11.064a8.853 8.853 0 0 1 13.626 1.349 14.037 14.037 0 0 1 -2.697 18.6z"/></g></svg>