<svg height="512pt" viewBox="-63 0 511 512" width="512pt" xmlns="http://www.w3.org/2000/svg"><path d="m293.652344 320.339844 48.84375-87.457032c8.972656-16.066406-2.640625-35.855468-21.039063-35.855468h-286.703125c-18.402344 0-30.015625 19.789062-21.042968 35.855468l143.351562 256.664063c9.195312 16.464844 32.886719 16.464844 42.085938 0l12.796874-22.910156" fill="#79b2ff"/><path d="m286.5 119.121094c0 60.210937-48.808594 109.019531-109.015625 109.019531-60.210937 0-109.019531-48.808594-109.019531-109.019531 0-60.207032 48.808594-109.015625 109.019531-109.015625 60.207031 0 109.015625 48.808593 109.015625 109.015625zm0 0" fill="#ffddcf"/><path d="m375.535156 411.785156c0 49.699219-40.292968 89.988282-89.992187 89.988282s-89.988281-40.289063-89.988281-89.988282c0-49.699218 40.289062-89.992187 89.988281-89.992187s89.992187 40.292969 89.992187 89.992187zm0 0" fill="#cbe558"/><path d="m60.667969 293.257812c-3.875-3.894531-10.414063-3.882812-14.289063 0-3.882812 3.886719-3.882812 10.398438 0 14.285157 3.773438 3.777343 10.035156 3.890625 13.960938.300781 4.171875-3.816406 4.351562-10.589844.328125-14.585938-1.878907-1.890624 1.890625 1.878907 0 0zm0 0"/><path d="m308.5625 314.367188 42.757812-76.554688c5.980469-10.710938 5.84375-23.417969-.363281-33.996094s-17.234375-16.890625-29.5-16.890625h-46.085937c13.378906-19.257812 21.238281-42.628906 21.238281-67.804687-.003906-65.683594-53.441406-119.121094-119.125-119.121094s-119.125 53.4375-119.125 119.121094c0 25.175781 7.859375 48.546875 21.238281 67.804687h-44.84375c-12.261718 0-23.292968 6.3125-29.5 16.890625-6.207031 10.578125-6.34375 23.285156-.363281 33.996094l18.863281 33.765625c6.398438 11.460937 23.945313 1.433594 17.640625-9.855469l-18.859375-33.765625c-5.132812-9.195312 1.691406-20.824219 12.222656-20.824219h62.535157c21.179687 19.316407 49.332031 31.113282 80.191406 31.113282s59.011719-11.796875 80.191406-31.113282h63.78125c10.53125 0 17.355469 11.628907 12.222657 20.824219l-46.777344 83.75c-54.996094-.734375-101.453125 45.054688-101.453125 100.074219 0 19.714844 5.734375 38.113281 15.609375 53.625l-10.730469 19.210938c-5.25 9.40625-19.1875 9.40625-24.441406 0l-85.269531-152.667969c-6.324219-11.324219-23.976563-1.488281-17.640626 9.855469l85.265626 152.667968c6.132812 10.976563 17.296874 17.527344 29.867187 17.527344s23.734375-6.550781 29.863281-17.527344l6.730469-12.046875c18.132813 18.183594 43.195313 29.453125 70.84375 29.453125 55.191406 0 100.09375-44.902344 100.09375-100.097656-.003906-47.269531-32.945313-86.988281-77.078125-97.414062zm-131.078125-96.332032c-54.542969 0-98.914063-44.371094-98.914063-98.914062 0-54.539063 44.371094-98.914063 98.914063-98.914063 54.539063 0 98.914063 44.375 98.914063 98.914063 0 54.542968-44.375 98.914062-98.914063 98.914062zm108.058594 273.632813c-44.050781 0-79.886719-35.835938-79.886719-79.882813 0-44.050781 35.835938-79.886718 79.886719-79.886718 44.046875 0 79.886719 35.835937 79.886719 79.886718 0 44.046875-35.839844 79.882813-79.886719 79.882813zm0 0"/><path d="m324.957031 376.0625c-4.375-3.460938-10.730469-2.71875-14.191406 1.65625l-38 48.058594-13.125-8.730469c-10.804687-7.183594-22.011719 9.632813-11.191406 16.828125l20.875 13.882812c4.261719 2.839844 10.34375 1.875 13.519531-2.144531l43.773438-55.359375c3.460937-4.375 2.71875-10.730468-1.660157-14.191406-4.375-3.460938 4.378907 3.460938 0 0zm0 0"/></svg>