<svg height="512pt" viewBox="-52 0 512 512" width="512pt" xmlns="http://www.w3.org/2000/svg"><path d="m395.65625 327.050781c-9.515625-24.695312-14.535156-62.878906-15.179688-85.613281h-353.949218c-.644532 22.734375-5.664063 60.917969-15.179688 85.613281-11.2773435 29.269531 35.335938 45.761719 92.640625 53.871094l99.515625 9.808594 99.511719-9.808594c57.304687-8.113281 103.917969-24.601563 92.640625-53.871094zm0 0" fill="#e5b965"/><path d="m407.003906 207.441406c0 19.355469-15.691406 35.042969-35.046875 35.042969s-35.046875-15.6875-35.046875-35.042969c0-19.355468 15.691406-35.046875 35.046875-35.046875s35.046875 15.691407 35.046875 35.046875zm0 0" fill="#ddc1a5"/><path d="m70.09375 207.441406c0 19.355469-15.691406 35.042969-35.046875 35.042969s-35.046875-15.6875-35.046875-35.042969c0-19.355468 15.691406-35.046875 35.046875-35.046875s35.046875 15.691407 35.046875 35.046875zm0 0" fill="#ddc1a5"/><path d="m38.9375 512c0-90.886719 73.679688-164.5625 164.566406-164.5625 90.882813 0 164.5625 73.675781 164.5625 164.5625zm0 0" fill="#3f474c"/><path d="m229.527344 349.492188c-8.476563-1.347657-17.167969-2.054688-26.023438-2.054688-90.886718 0-164.566406 73.675781-164.566406 164.5625h52.046875c0-82.03125 60.023437-150.03125 138.542969-162.507812zm0 0" fill="#363f44"/><path d="m152.171875 327.054688h102.664063v78.003906h-102.664063zm0 0" fill="#e9ccae"/><path d="m152.171875 383.046875c16.347656 4.53125 33.558594 6.964844 51.332031 6.964844 17.769532 0 34.980469-2.433594 51.332032-6.964844v-55.992187h-102.664063zm0 0" fill="#ddc1a5"/><path d="m164.066406 405.058594h78.871094v106.941406h-78.871094zm0 0" fill="#df7566"/><path d="m152.171875 344.933594h16.285156l35.046875 167.066406h-40.765625l-52.839843-103.101562zm0 0" fill="#4a5359"/><path d="m177.542969 388.253906-9.085938-43.320312h-16.285156l-20.574219 31.128906c14.527344 5.871094 29.925782 10.019531 45.945313 12.191406zm0 0" fill="#3f474c"/><path d="m254.835938 344.933594h-16.289063l-35.042969 167.066406h40.761719l52.839844-103.101562zm0 0" fill="#4a5359"/><path d="m275.40625 376.0625-20.570312-31.128906h-16.289063l-9.085937 43.320312c16.019531-2.171875 31.417968-6.320312 45.945312-12.191406zm0 0" fill="#3f474c"/><path d="m380.296875 197.601562c0 97.640626-79.152344 176.792969-176.792969 176.792969-97.644531 0-176.796875-79.152343-176.796875-176.792969 0-97.640624 79.152344-176.796874 176.796875-176.796874 97.640625 0 176.792969 79.15625 176.792969 176.796874zm0 0" fill="#f5d7b7"/><path d="m219.382812 21.523438c-.136718-.011719-.269531-.023438-.402343-.035157-1.484375-.128906-2.96875-.238281-4.464844-.332031-.273437-.015625-.546875-.035156-.824219-.050781-1.367187-.078125-2.738281-.136719-4.109375-.183594-.351562-.011719-.703125-.03125-1.054687-.039063-1.667969-.046874-3.34375-.078124-5.023438-.078124-97.644531 0-176.796875 79.15625-176.796875 176.796874 0 1.699219.03125 3.386719.078125 5.074219 2.683594 95.292969 80.773438 171.722657 176.71875 171.722657 7.042969 0 13.988282-.425782 20.816406-1.226563-87.710937-10.289063-155.789062-84.773437-155.972656-175.203125 48.300782-8.566406 81.707032-26.164062 102.996094-41.632812 14.339844-10.414063 24.835938-20.957032 32.15625-29.621094 7.324219 8.664062 17.820312 19.207031 32.15625 29.621094 26.933594 19.566406 73.21875 42.554687 144.5625 46.339843.046875-1.6875.078125-3.375.078125-5.074219 0-92.289062-70.714844-168.046874-160.914063-176.078124zm0 0" fill="#e9ccae"/><path d="m203.503906 0c-105.785156 0-192.152344 83.121094-197.351562 187.613281 152.914062 0 197.351562-87.820312 197.351562-87.820312s44.433594 87.820312 197.347656 87.820312c-5.199218-104.492187-91.566406-187.613281-197.347656-187.613281zm0 0" fill="#ffce71"/><path d="m224.320312 1.09375c-6.84375-.714844-13.785156-1.09375-20.816406-1.09375-105.785156 0-192.152344 83.121094-197.351562 187.613281 14.949218 0 28.847656-.847656 41.78125-2.363281 5.953125-96.449219 81.078125-174.175781 176.386718-184.15625zm0 0" fill="#e5b965"/><g fill="#4a5359"><path d="m203.503906 257.199219c-9.78125 0-18.886718-5.273438-23.769531-13.757813-2.0625-3.589844-.828125-8.175781 2.761719-10.242187 3.59375-2.0625 8.175781-.828125 10.242187 2.761719 2.210938 3.847656 6.335938 6.234374 10.765625 6.234374 4.425782 0 8.550782-2.386718 10.761719-6.230468 2.0625-3.59375 6.644531-4.832032 10.238281-2.765625 3.589844 2.0625 4.828125 6.648437 2.765625 10.238281-4.878906 8.488281-13.988281 13.761719-23.765625 13.761719zm0 0"/><path d="m269.113281 227.035156c-4.140625 0-7.5-3.355468-7.5-7.5v-11.695312c0-4.144532 3.359375-7.5 7.5-7.5 4.144531 0 7.5 3.355468 7.5 7.5v11.695312c0 4.144532-3.355469 7.5-7.5 7.5zm0 0"/><path d="m137.890625 227.035156c-4.144531 0-7.5-3.355468-7.5-7.5v-11.695312c0-4.144532 3.355469-7.5 7.5-7.5 4.140625 0 7.5 3.355468 7.5 7.5v11.695312c0 4.144532-3.359375 7.5-7.5 7.5zm0 0"/></g><path d="m274.964844 249.148438h-11.699219c-4.144531 0-7.5-3.355469-7.5-7.5 0-4.140626 3.355469-7.5 7.5-7.5h11.699219c4.140625 0 7.5 3.359374 7.5 7.5 0 4.144531-3.359375 7.5-7.5 7.5zm0 0" fill="#f27f6f"/><path d="m143.738281 249.148438h-11.699219c-4.140624 0-7.5-3.355469-7.5-7.5 0-4.140626 3.359376-7.5 7.5-7.5h11.699219c4.144531 0 7.5 3.359374 7.5 7.5 0 4.144531-3.355469 7.5-7.5 7.5zm0 0" fill="#f27f6f"/></svg>